{
  "accessors": [
    {
      "bufferView": 2,
      "componentType": 5126,
      "count": 64,
      "max": [
        1.0,
        1.0558496713638306,
        2.4709341526031494
      ],
      "min": [
        -1.0,
        1.0558496713638306,
        0.4709339737892151
      ],
      "type": "VEC3"
    },
    {
      "bufferView": 2,
      "byteOffset": 768,
      "componentType": 5126,
      "count": 64,
      "max": [
        -3.490842814812822e-08,
        1.0,
        -0.0
      ],
      "min": [
        -3.490842814812822e-08,
        1.0,
        -0.0
      ],
      "type": "VEC3"
    },
    {
      "bufferView": 1,
      "componentType": 5126,
      "count": 64,
      "max": [
        0.9896859526634216,
        0.028829172253608704
      ],
      "min": [
        0.9534558057785034,
        0.0060812076553702354
      ],
      "type": "VEC2"
    },
    {
      "bufferView": 0,
      "componentType": 5125,
      "count": 186,
      "type": "SCALAR"
    },
    {
      "bufferView": 2,
      "byteOffset": 1536,
      "componentType": 5126,
      "count": 1062,
      "max": [
        9.555397033691406,
        -2.524405002593994,
        6.298377990722656
      ],
      "min": [
        -2.8991799354553223,
        -4.611786365509033,
        -6.298377990722656
      ],
      "type": "VEC3"
    },
    {
      "bufferView": 2,
      "byteOffset": 14280,
      "componentType": 5126,
      "count": 1062,
      "max": [
        0.9998931884765625,
        1.0,
        0.9999428987503052
      ],
      "min": [
        -0.9994041919708252,
        -0.9996951818466187,
        -0.9999428987503052
      ],
      "type": "VEC3"
    },
    {
      "bufferView": 1,
      "byteOffset": 512,
      "componentType": 5126,
      "count": 1062,
      "max": [
        0.5524288415908813,
        0.40596210956573486
      ],
      "min": [
        0.34954917430877686,
        0.38527998328208923
      ],
      "type": "VEC2"
    },
    {
      "bufferView": 0,
      "byteOffset": 744,
      "componentType": 5125,
      "count": 5760,
      "type": "SCALAR"
    },
    {
      "bufferView": 2,
      "byteOffset": 27024,
      "componentType": 5126,
      "count": 2136,
      "max": [
        46.83345413208008,
        81.74994659423828,
        11.042887687683105
      ],
      "min": [
        -55.730987548828125,
        -81.56520080566406,
        -11.217848777770996
      ],
      "type": "VEC3"
    },
    {
      "bufferView": 2,
      "byteOffset": 52656,
      "componentType": 5126,
      "count": 2136,
      "max": [
        0.9996817111968994,
        0.9785887002944946,
        0.999975323677063
      ],
      "min": [
        -0.999506950378418,
        -0.9795457124710083,
        -0.999975323677063
      ],
      "type": "VEC3"
    },
    {
      "bufferView": 1,
      "byteOffset": 9008,
      "componentType": 5126,
      "count": 2136,
      "max": [
        0.9700666069984436,
        0.9819143414497375
      ],
      "min": [
        0.007177121937274933,
        0.005818920210003853
      ],
      "type": "VEC2"
    },
    {
      "bufferView": 0,
      "byteOffset": 23784,
      "componentType": 5125,
      "count": 12246,
      "type": "SCALAR"
    },
    {
      "bufferView": 2,
      "byteOffset": 78288,
      "componentType": 5126,
      "count": 1070,
      "max": [
        9.555397033691406,
        -2.3680405616760254,
        6.298377990722656
      ],
      "min": [
        -11.760437965393066,
        -4.403133869171143,
        -6.298377990722656
      ],
      "type": "VEC3"
    },
    {
      "bufferView": 2,
      "byteOffset": 91128,
      "componentType": 5126,
      "count": 1070,
      "max": [
        0.9959500432014465,
        0.99722820520401,
        0.9999470710754395
      ],
      "min": [
        -0.982257068157196,
        -0.9996951818466187,
        -0.9999470710754395
      ],
      "type": "VEC3"
    },
    {
      "bufferView": 1,
      "byteOffset": 26096,
      "componentType": 5126,
      "count": 1070,
      "max": [
        0.5445924997329712,
        0.40596210956573486
      ],
      "min": [
        0.34924039244651794,
        0.38527998328208923
      ],
      "type": "VEC2"
    },
    {
      "bufferView": 0,
      "byteOffset": 72768,
      "componentType": 5125,
      "count": 5760,
      "type": "SCALAR"
    },
    {
      "bufferView": 2,
      "byteOffset": 103968,
      "componentType": 5126,
      "count": 1064,
      "max": [
        0.6119289398193359,
        -2.3680405616760254,
        6.298377990722656
      ],
      "min": [
        -11.760437965393066,
        -4.611786365509033,
        -6.298377990722656
      ],
      "type": "VEC3"
    },
    {
      "bufferView": 2,
      "byteOffset": 116736,
      "componentType": 5126,
      "count": 1064,
      "max": [
        0.9998931884765625,
        1.0,
        0.9999470710754395
      ],
      "min": [
        -0.9994041919708252,
        -0.9993655681610107,
        -0.9999470710754395
      ],
      "type": "VEC3"
    },
    {
      "bufferView": 1,
      "byteOffset": 34656,
      "componentType": 5126,
      "count": 1064,
      "max": [
        0.5605815649032593,
        0.40596210956573486
      ],
      "min": [
        0.34313079714775085,
        0.38527998328208923
      ],
      "type": "VEC2"
    },
    {
      "bufferView": 0,
      "byteOffset": 95808,
      "componentType": 5125,
      "count": 5760,
      "type": "SCALAR"
    },
    {
      "bufferView": 2,
      "byteOffset": 129504,
      "componentType": 5126,
      "count": 32,
      "max": [
        1.0,
        2.2048075199127197,
        0.1601405143737793
      ],
      "min": [
        -1.0,
        1.1449689865112305,
        -1.535955548286438
      ],
      "type": "VEC3"
    },
    {
      "bufferView": 2,
      "byteOffset": 129888,
      "componentType": 5126,
      "count": 32,
      "max": [
        2.386901343243153e-08,
        0.8480480909347534,
        0.5299193263053894
      ],
      "min": [
        2.386901343243153e-08,
        0.8480480909347534,
        0.5299193263053894
      ],
      "type": "VEC3"
    },
    {
      "bufferView": 1,
      "byteOffset": 43168,
      "componentType": 5126,
      "count": 32,
      "max": [
        0.9473627805709839,
        0.028829112648963928
      ],
      "min": [
        0.9111326336860657,
        0.0060812076553702354
      ],
      "type": "VEC2"
    },
    {
      "bufferView": 0,
      "byteOffset": 118848,
      "componentType": 5125,
      "count": 90,
      "type": "SCALAR"
    },
    {
      "bufferView": 2,
      "byteOffset": 130272,
      "componentType": 5126,
      "count": 1162,
      "max": [
        1.0135209560394287,
        0.7175414562225342,
        0.9275927543640137
      ],
      "min": [
        -3.90659499168396,
        -0.5013117790222168,
        -0.41314125061035156
      ],
      "type": "VEC3"
    },
    {
      "bufferView": 2,
      "byteOffset": 144216,
      "componentType": 5126,
      "count": 1162,
      "max": [
        0.9995510578155518,
        0.9977849125862122,
        0.9972518682479858
      ],
      "min": [
        -0.9986909031867981,
        -0.9976221919059753,
        -0.9998797178268433
      ],
      "type": "VEC3"
    },
    {
      "bufferView": 1,
      "byteOffset": 43424,
      "componentType": 5126,
      "count": 1162,
      "max": [
        0.9754549860954285,
        0.025432076305150986
      ],
      "min": [
        0.9411408305168152,
        0.016891449689865112
      ],
      "type": "VEC2"
    },
    {
      "bufferView": 0,
      "byteOffset": 119208,
      "componentType": 5125,
      "count": 5904,
      "type": "SCALAR"
    },
    {
      "bufferView": 3,
      "componentType": 5126,
      "count": 100,
      "max": [
        4.166666507720947
      ],
      "min": [
        0.0416666679084301
      ],
      "type": "SCALAR"
    },
    {
      "bufferView": 4,
      "componentType": 5126,
      "count": 100,
      "max": [
        0.0244416743516922,
        0.05254935473203659,
        0.02819031849503517,
        0.9988570213317871
      ],
      "min": [
        -0.13917310535907745,
        0.0,
        -0.0,
        0.9902681112289429
      ],
      "type": "VEC4"
    },
    {
      "bufferView": 3,
      "byteOffset": 400,
      "componentType": 5126,
      "count": 100,
      "max": [
        4.166666507720947
      ],
      "min": [
        0.0416666679084301
      ],
      "type": "SCALAR"
    },
    {
      "bufferView": 4,
      "byteOffset": 1600,
      "componentType": 5126,
      "count": 100,
      "max": [
        0.0,
        0.0,
        -0.0,
        1.0
      ],
      "min": [
        0.0,
        0.0,
        -0.044524360448122025,
        0.999008297920227
      ],
      "type": "VEC4"
    },
    {
      "bufferView": 3,
      "byteOffset": 800,
      "componentType": 5126,
      "count": 100,
      "max": [
        4.166666507720947
      ],
      "min": [
        0.0416666679084301
      ],
      "type": "SCALAR"
    },
    {
      "bufferView": 4,
      "byteOffset": 3200,
      "componentType": 5126,
      "count": 100,
      "max": [
        0.0,
        0.0,
        0.03428076207637787,
        1.0
      ],
      "min": [
        0.0,
        0.0,
        -0.0,
        0.9994122385978699
      ],
      "type": "VEC4"
    },
    {
      "bufferView": 3,
      "byteOffset": 1200,
      "componentType": 5126,
      "count": 100,
      "max": [
        4.166666507720947
      ],
      "min": [
        0.0416666679084301
      ],
      "type": "SCALAR"
    },
    {
      "bufferView": 4,
      "byteOffset": 4800,
      "componentType": 5126,
      "count": 100,
      "max": [
        0.0,
        0.0,
        0.03632134199142456,
        1.0
      ],
      "min": [
        0.0,
        0.0,
        -0.0,
        0.9993401765823364
      ],
      "type": "VEC4"
    },
    {
      "bufferView": 3,
      "byteOffset": 1600,
      "componentType": 5126,
      "count": 100,
      "max": [
        4.166666507720947
      ],
      "min": [
        0.0416666679084301
      ],
      "type": "SCALAR"
    },
    {
      "bufferView": 4,
      "byteOffset": 6400,
      "componentType": 5126,
      "count": 100,
      "max": [
        -0.13917310535907745,
        0.0,
        -0.0,
        0.9902681112289429
      ],
      "min": [
        -0.30901700258255005,
        0.0,
        -0.0,
        0.9510564804077148
      ],
      "type": "VEC4"
    }
  ],
  "animations": [
    {
      "channels": [
        {
          "sampler": 0,
          "target": {
            "node": 3,
            "path": "rotation"
          }
        },
        {
          "sampler": 1,
          "target": {
            "node": 5,
            "path": "rotation"
          }
        },
        {
          "sampler": 2,
          "target": {
            "node": 9,
            "path": "rotation"
          }
        },
        {
          "sampler": 3,
          "target": {
            "node": 11,
            "path": "rotation"
          }
        },
        {
          "sampler": 4,
          "target": {
            "node": 13,
            "path": "rotation"
          }
        }
      ],
      "name": "Animation",
      "samplers": [
        {
          "input": 28,
          "interpolation": "LINEAR",
          "output": 29
        },
        {
          "input": 30,
          "interpolation": "LINEAR",
          "output": 31
        },
        {
          "input": 32,
          "interpolation": "LINEAR",
          "output": 33
        },
        {
          "input": 34,
          "interpolation": "LINEAR",
          "output": 35
        },
        {
          "input": 36,
          "interpolation": "LINEAR",
          "output": 37
        }
      ]
    }
  ],
  "asset": {
    "extras": {
      "author": "ENKY (https://sketchfab.com/IENKYI)",
      "license": "CC-BY-4.0 (http://creativecommons.org/licenses/by/4.0/)",
      "source": "https://sketchfab.com/3d-models/bee-adventure-time-b1f559ae511348c2b86316936a74b9f6",
      "title": "Bee (Adventure Time)"
    },
    "generator": "Sketchfab-14.48.0",
    "version": "2.0"
  },
  "bufferViews": [
    {
      "buffer": 0,
      "byteLength": 142824,
      "name": "floatBufferViews",
      "target": 34963
    },
    {
      "buffer": 0,
      "byteLength": 52720,
      "byteOffset": 142824,
      "byteStride": 8,
      "name": "floatBufferViews",
      "target": 34962
    },
    {
      "buffer": 0,
      "byteLength": 158160,
      "byteOffset": 195544,
      "byteStride": 12,
      "name": "floatBufferViews",
      "target": 34962
    },
    {
      "buffer": 0,
      "byteLength": 2000,
      "byteOffset": 353704,
      "name": "floatBufferViews"
    },
    {
      "buffer": 0,
      "byteLength": 8000,
      "byteOffset": 355704,
      "byteStride": 16,
      "name": "floatBufferViews"
    }
  ],
  "buffers": [
    {
      "byteLength": 363704,
      "uri": "scene.bin"
    }
  ],
  "images": [
    {
      "uri": "textures/material_baseColor.png"
    }
  ],
  "materials": [
    {
      "doubleSided": true,
      "name": "material",
      "pbrMetallicRoughness": {
        "baseColorTexture": {
          "index": 0
        },
        "metallicFactor": 0.0
      }
    }
  ],
  "meshes": [
    {
      "name": "Object_0",
      "primitives": [
        {
          "attributes": {
            "NORMAL": 1,
            "POSITION": 0,
            "TEXCOORD_0": 2
          },
          "indices": 3,
          "material": 0,
          "mode": 4
        }
      ]
    },
    {
      "name": "Object_1",
      "primitives": [
        {
          "attributes": {
            "NORMAL": 5,
            "POSITION": 4,
            "TEXCOORD_0": 6
          },
          "indices": 7,
          "material": 0,
          "mode": 4
        }
      ]
    },
    {
      "name": "Object_2",
      "primitives": [
        {
          "attributes": {
            "NORMAL": 9,
            "POSITION": 8,
            "TEXCOORD_0": 10
          },
          "indices": 11,
          "material": 0,
          "mode": 4
        }
      ]
    },
    {
      "name": "Object_3",
      "primitives": [
        {
          "attributes": {
            "NORMAL": 13,
            "POSITION": 12,
            "TEXCOORD_0": 14
          },
          "indices": 15,
          "material": 0,
          "mode": 4
        }
      ]
    },
    {
      "name": "Object_4",
      "primitives": [
        {
          "attributes": {
            "NORMAL": 17,
            "POSITION": 16,
            "TEXCOORD_0": 18
          },
          "indices": 19,
          "material": 0,
          "mode": 4
        }
      ]
    },
    {
      "name": "Object_5",
      "primitives": [
        {
          "attributes": {
            "NORMAL": 21,
            "POSITION": 20,
            "TEXCOORD_0": 22
          },
          "indices": 23,
          "material": 0,
          "mode": 4
        }
      ]
    },
    {
      "name": "Object_6",
      "primitives": [
        {
          "attributes": {
            "NORMAL": 25,
            "POSITION": 24,
            "TEXCOORD_0": 26
          },
          "indices": 27,
          "material": 0,
          "mode": 4
        }
      ]
    }
  ],
  "nodes": [
    {
      "children": [
        1
      ],
      "matrix": [
        0.4546094536781311,
        0.17328613996505718,
        0.8736716508865356,
        0.0,
        0.8832046985626221,
        0.039205491542816266,
        -0.46734607219696045,
        0.0,
        -0.11523731797933578,
        0.9840908646583557,
        -0.13522395491600014,
        0.0,
        0.0,
        0.0,
        0.0,
        1.0
      ],
      "name": "Sketchfab_model"
    },
    {
      "children": [
        2
      ],
      "name": "root"
    },
    {
      "children": [
        3,
        5,
        7,
        9,
        11,
        13,
        15
      ],
      "matrix": [
        1.0,
        0.0,
        0.0,
        0.0,
        0.0,
        2.220446049250313e-16,
        1.0,
        0.0,
        0.0,
        -1.0,
        2.220446049250313e-16,
        0.0,
        0.0,
        0.0,
        0.0,
        1.0
      ],
      "name": "GLTF_SceneRootNode"
    },
    {
      "children": [
        4
      ],
      "name": "Ali 1_0",
      "rotation": [
        -0.13917310535907745,
        0.0,
        0.0,
        0.9902680516242981
      ],
      "scale": [
        0.4451167583465576,
        0.7409705519676208,
        0.7409705519676208
      ]
    },
    {
      "mesh": 0,
      "name": "Object_4"
    },
    {
      "children": [
        6
      ],
      "name": "Zampette_1",
      "scale": [
        0.06923402100801468,
        0.2837664484977722,
        0.06991660594940186
      ]
    },
    {
      "mesh": 1,
      "name": "Object_6"
    },
    {
      "children": [
        8
      ],
      "matrix": [
        0.022925906179682827,
        0.006761644322110672,
        0.011379117423568645,
        0.0,
        0.0008075585125338944,
        0.009707945096806987,
        -0.0073956247574911696,
        0.0,
        -0.04805030099472038,
        0.0535197070435849,
        0.06500640091173368,
        0.0,
        -0.01711179129779339,
        0.0,
        0.0,
        1.0
      ],
      "name": "Corpo_2"
    },
    {
      "mesh": 2,
      "name": "Object_8"
    },
    {
      "children": [
        10
      ],
      "name": "Zampette.001_3",
      "scale": [
        0.06923402100801468,
        0.2837664484977722,
        0.06991660594940186
      ]
    },
    {
      "mesh": 3,
      "name": "Object_10"
    },
    {
      "children": [
        12
      ],
      "name": "Zampette.002_4",
      "scale": [
        0.06923402100801468,
        0.2837664484977722,
        0.06991660594940186
      ]
    },
    {
      "mesh": 4,
      "name": "Object_12"
    },
    {
      "children": [
        14
      ],
      "name": "Ali 2_5",
      "rotation": [
        -0.13917310535907745,
        0.0,
        0.0,
        0.9902680516242981
      ],
      "scale": [
        0.4451167583465576,
        0.7409705519676208,
        0.7409705519676208
      ]
    },
    {
      "mesh": 5,
      "name": "Object_14"
    },
    {
      "children": [
        16
      ],
      "matrix": [
        1.0,
        0.0,
        0.0,
        0.0,
        0.0,
        1.0,
        0.0,
        0.0,
        0.0,
        0.0,
        1.0,
        0.0,
        -2.7973082065582275,
        0.0,
        0.0,
        1.0
      ],
      "name": "Scia Bee_6"
    },
    {
      "mesh": 6,
      "name": "Object_16"
    }
  ],
  "samplers": [
    {
      "magFilter": 9729,
      "minFilter": 9987,
      "wrapS": 10497,
      "wrapT": 10497
    }
  ],
  "scene": 0,
  "scenes": [
    {
      "name": "Sketchfab_Scene",
      "nodes": [
        0
      ]
    }
  ],
  "textures": [
    {
      "sampler": 0,
      "source": 0
    }
  ]
}
